HIERARCHY
ROOT hip
{
  OFFSET 0 0 0
  CHANNELS 6 Xposition Yposition Zposition Zrotation Yrotation Xrotation
  JOINT abdomen
  {
    OFFSET 0 20.6881 -0.73152
    CHANNELS 3 Zrotation Xrotation Yrotation
    JOINT chest
    {
      OFFSET 0 11.7043 -0.48768
      CHANNELS 3 Zrotation Xrotation Yrotation
      JOINT neck
      {
        OFFSET 0 22.1894 -2.19456
        CHANNELS 3 Zrotation Xrotation Yrotation
        JOINT head
        {
          OFFSET -0.24384 7.07133 1.2192
          CHANNELS 3 Zrotation Xrotation Yrotation
          JOINT leftEye
          {
            OFFSET 4.14528 8.04674 8.04672
            CHANNELS 3 Zrotation Xrotation Yrotation
            End Site
            {
              OFFSET 1 0 0
            }
          }
          JOINT rightEye
          {
            OFFSET -3.6576 8.04674 8.04672
            CHANNELS 3 Zrotation Xrotation Yrotation
            End Site
            {
              OFFSET 1 0 0
            }
          }
        }
      }
      JOINT rCollar
      {
        OFFSET -2.68224 19.2634 -4.8768
        CHANNELS 3 Zrotation Xrotation Yrotation
        JOINT rShldr
        {
          OFFSET -8.77824 -1.95073 1.46304
          CHANNELS 3 Zrotation Xrotation Yrotation
          JOINT rForeArm
          {
            OFFSET -28.1742 -1.7115 0.48768
            CHANNELS 3 Zrotation Xrotation Yrotation
            JOINT rHand
            {
              OFFSET -22.5879 0.773209 7.07136
              CHANNELS 3 Zrotation Xrotation Yrotation
              JOINT rThumb1
              {
                OFFSET -1.2192 -0.487915 3.41376
                CHANNELS 3 Zrotation Xrotation Yrotation
                JOINT rThumb2
                {
                  OFFSET -3.37035 -0.52449 3.41376
                  CHANNELS 3 Zrotation Xrotation Yrotation
                  End Site
                  {
                    OFFSET -1.78271 -1.18214 1.43049
                  }
                }
              }
              JOINT rIndex1
              {
                OFFSET -7.75947 0.938293 5.60832
                CHANNELS 3 Zrotation Xrotation Yrotation
                JOINT rIndex2
                {
                  OFFSET -2.54057 -0.884171 1.56538
                  CHANNELS 3 Zrotation Xrotation Yrotation
                  End Site
                  {
                    OFFSET -1.62519 -0.234802 1.16502
                  }
                }
              }
              JOINT rMid1
              {
                OFFSET -8.24714 1.18213 3.41376
                CHANNELS 3 Zrotation Xrotation Yrotation
                JOINT rMid2
                {
                  OFFSET -3.10165 -0.590103 1.0647
                  CHANNELS 3 Zrotation Xrotation Yrotation
                  End Site
                  {
                    OFFSET -2.48547 -0.328903 0.83742
                  }
                }
              }
              JOINT rRing1
              {
                OFFSET -8.82822 0.546677 1.51678
                CHANNELS 3 Zrotation Xrotation Yrotation
                JOINT rRing2
                {
                  OFFSET -2.60934 -0.819778 -0.0198488
                  CHANNELS 3 Zrotation Xrotation Yrotation
                  End Site
                  {
                    OFFSET -2.33842 -0.294052 0.168128
                  }
                }
              }
              JOINT rPinky1
              {
                OFFSET -8.27202 -0.0477905 -0.4584
                CHANNELS 3 Zrotation Xrotation Yrotation
                JOINT rPinky2
                {
                  OFFSET -1.82734 -0.647385 -0.700984
                  CHANNELS 3 Zrotation Xrotation Yrotation
                  End Site
                  {
                    OFFSET -1.69225 -0.51767 -0.607171
                  }
                }
              }
            }
          }
        }
      }
      JOINT lCollar
      {
        OFFSET 2.68224 19.2634 -4.8768
        CHANNELS 3 Zrotation Xrotation Yrotation
        JOINT lShldr
        {
          OFFSET 8.77824 -1.95073 1.46304
          CHANNELS 3 Zrotation Xrotation Yrotation
          JOINT lForeArm
          {
            OFFSET 28.1742 -1.7115 0.48768
            CHANNELS 3 Zrotation Xrotation Yrotation
            JOINT lHand
            {
              OFFSET 22.5879 0.773209 7.07136
              CHANNELS 3 Zrotation Xrotation Yrotation
              JOINT lThumb1
              {
                OFFSET 1.2192 -0.487915 3.41376
                CHANNELS 3 Zrotation Xrotation Yrotation
                JOINT lThumb2
                {
                  OFFSET 3.37035 -0.52449 3.41376
                  CHANNELS 3 Zrotation Xrotation Yrotation
                  End Site
                  {
                    OFFSET 1.78271 -1.18214 1.43049
                  }
                }
              }
              JOINT lIndex1
              {
                OFFSET 7.75947 0.938293 5.60832
                CHANNELS 3 Zrotation Xrotation Yrotation
                JOINT lIndex2
                {
                  OFFSET 2.54057 -0.884171 1.56538
                  CHANNELS 3 Zrotation Xrotation Yrotation
                  End Site
                  {
                    OFFSET 1.62519 -0.234802 1.16502
                  }
                }
              }
              JOINT lMid1
              {
                OFFSET 8.24714 1.18213 3.41376
                CHANNELS 3 Zrotation Xrotation Yrotation
                JOINT lMid2
                {
                  OFFSET 3.10165 -0.590103 1.0647
                  CHANNELS 3 Zrotation Xrotation Yrotation
                  End Site
                  {
                    OFFSET 2.48547 -0.328903 0.83742
                  }
                }
              }
              JOINT lRing1
              {
                OFFSET 8.82822 0.546677 1.51678
                CHANNELS 3 Zrotation Xrotation Yrotation
                JOINT lRing2
                {
                  OFFSET 2.60934 -0.819778 -0.0198488
                  CHANNELS 3 Zrotation Xrotation Yrotation
                  End Site
                  {
                    OFFSET 2.33842 -0.294052 0.168128
                  }
                }
              }
              JOINT lPinky1
              {
                OFFSET 8.27202 -0.0477905 -0.4584
                CHANNELS 3 Zrotation Xrotation Yrotation
                JOINT lPinky2
                {
                  OFFSET 1.82734 -0.647385 -0.700984
                  CHANNELS 3 Zrotation Xrotation Yrotation
                  End Site
                  {
                    OFFSET 1.69225 -0.51767 -0.607171
                  }
                }
              }
            }
          }
        }
      }
    }
  }
  JOINT rButtock
  {
    OFFSET -8.77824 4.35084 1.2192
    CHANNELS 3 Zrotation Xrotation Yrotation
    JOINT rThigh
    {
      OFFSET 0 -1.70687 -2.19456
      CHANNELS 3 Zrotation Xrotation Yrotation
      JOINT rShin
      {
        OFFSET 0 -36.8199 0.73152
        CHANNELS 3 Zrotation Xrotation Yrotation
        JOINT rFoot
        {
          OFFSET 0.73152 -45.1104 -5.12064
          CHANNELS 3 Zrotation Xrotation Yrotation
          End Site
          {
            OFFSET -1.1221 -3.69964 12.103
          }
        }
      }
    }
  }
  JOINT lButtock
  {
    OFFSET 8.77824 4.35084 1.2192
    CHANNELS 3 Zrotation Xrotation Yrotation
    JOINT lThigh
    {
      OFFSET 0 -1.70687 -2.19456
      CHANNELS 3 Zrotation Xrotation Yrotation
      JOINT lShin
      {
        OFFSET 0 -36.8199 0.73152
        CHANNELS 3 Zrotation Xrotation Yrotation
        JOINT lFoot
        {
          OFFSET -0.73152 -45.1104 -5.12064
          CHANNELS 3 Zrotation Xrotation Yrotation
          End Site
          {
            OFFSET 1.1221 -3.69964 12.103
          }
        }
      }
    }
  }
}
MOTION
Frames:	7
Frame Time:	0.00833333
26.375 84.1274 -4.59963 -105.029 -85.9649 104.338 7.24287 15.1178 3.14087 -2.1647 -1.34149 1.07733 7.82436 8.5084 3.42504 -8.11 -24.1359 4.06166 -0.0 0.0 0.0 -0.0 0.0 0.0 1.86817e-14 5.36666e-13 -1.44119e-15 71.3646 41.171 5.34887 -16.1225 -8.80143 29.9315 -0.475696 -19.2218 -2.80869 -2.72534e-10 2.08753e-10 2.68213e-10 -4.70777e-10 3.62609e-10 4.5919e-10 -2.72531e-10 2.08753e-10 2.68203e-10 7.73091 5.47488 0.417314 -2.72531e-10 2.08752e-10 2.6821e-10 2.90554 0.965183 0.102902 -2.72524e-10 2.08753e-10 2.68215e-10 10.2786 0.731801 0.0259123 -2.72538e-10 2.08754e-10 2.68223e-10 2.22167 -0.733487 -0.20892 1.86911e-14 5.36667e-13 -1.73937e-15 -80.5505 19.2716 1.28654 17.3092 -9.96272 -32.4882 9.93919e-06 0.0900154 -0.0126508 -7.63454e-10 2.40367e-10 -4.6507e-10 -1.32237e-09 4.16287e-10 -8.03711e-10 -7.63459e-10 2.40372e-10 -4.65051e-10 -7.73091 5.47488 -0.417314 -7.63452e-10 2.40368e-10 -4.65067e-10 -2.90554 0.965183 -0.102902 -7.63461e-10 2.40368e-10 -4.65062e-10 -10.2786 0.731801 -0.0259123 -7.63449e-10 2.40369e-10 -4.65058e-10 -2.22167 -0.733487 0.20892 -2.03217e-16 0.0 -3.88251e-19 9.96686 -9.47387 14.4689 0.0188883 19.2664 0.459232 -9.73758 -15.4783 -28.1895 2.03217e-16 0.0 3.88251e-19 4.20298 -14.9916 -14.4533 0.169737 28.7491 -0.582144 5.68137 -12.2774 17.5462
26.3147 84.1542 -4.52308 -106.16 -85.8079 105.23 7.14828 14.9883 3.1438 -2.12689 -1.33763 1.07608 7.80755 8.5231 3.41198 -7.95828 -24.0406 4.07641 -0.0 0.0 0.0 -0.0 0.0 0.0 -5.64326e-15 -3.08851e-13 -9.7024e-16 71.6647 40.885 5.11921 -16.0962 -8.7768 29.8761 -0.47187 -19.1484 -2.79712 -3.68878e-10 4.43142e-10 8.54817e-10 -6.42235e-10 7.67594e-10 1.47159e-09 -3.68876e-10 4.43143e-10 8.54808e-10 7.73091 5.47488 0.417314 -3.68876e-10 4.43144e-10 8.54813e-10 2.90554 0.965183 0.102902 -3.68869e-10 4.43144e-10 8.54819e-10 10.2786 0.731801 0.0259123 -3.68881e-10 4.43145e-10 8.54826e-10 2.22167 -0.733487 -0.20892 -5.63659e-15 -3.0885e-13 -1.25988e-15 -80.306 19.2001 1.1649 17.0698 -9.72295 -31.9586 -0.000112625 0.364653 -0.0512468 -7.92146e-10 5.56962e-10 -1.03551e-09 -1.37475e-09 9.631e-10 -1.79039e-09 -7.92151e-10 5.56966e-10 -1.03549e-09 -7.73091 5.47488 -0.417314 -7.92145e-10 5.56963e-10 -1.03551e-09 -2.90554 0.965183 -0.102902 -7.92152e-10 5.56961e-10 -1.03551e-09 -10.2786 0.731801 -0.0259123 -7.92141e-10 5.56963e-10 -1.03551e-09 -2.22167 -0.733487 0.20892 -2.03217e-16 0.0 -3.88251e-19 9.9788 -9.33161 14.7589 0.0193018 19.1873 0.461639 -9.92932 -15.8501 -28.2245 2.03217e-16 0.0 3.88251e-19 4.02515 -14.7983 -14.9055 0.16782 28.6348 -0.585535 5.85577 -12.3387 18.0304
26.2148 84.1718 -4.34722 -107.933 -85.9653 106.835 6.93761 14.9005 3.16532 -2.07854 -1.36653 1.07607 7.77052 8.46229 3.40368 -7.79151 -23.8015 4.10602 -0.0 0.0 0.0 -0.0 0.0 0.0 -2.73332e-14 -1.19061e-12 -1.43808e-15 72.0528 40.5486 4.81104 -16.0794 -8.76118 29.8407 -0.46658 -19.0461 -2.78098 -4.8588e-10 7.37995e-10 1.61482e-09 -8.5083e-10 1.27693e-09 2.7834e-09 -4.8588e-10 7.37998e-10 1.61481e-09 7.73091 5.47488 0.417314 -4.8588e-10 7.37999e-10 1.61482e-09 2.90554 0.965183 0.102902 -4.85873e-10 7.37999e-10 1.61482e-09 10.2786 0.731801 0.0259123 -4.85883e-10 7.37998e-10 1.61483e-09 2.22167 -0.733487 -0.20892 -2.7322e-14 -1.19061e-12 -1.69278e-15 -80.0069 19.1294 1.01426 16.7846 -9.44068 -31.3383 0.000278898 0.735002 -0.1033 -7.92331e-10 8.77401e-10 -1.83422e-09 -1.37863e-09 1.5164e-09 -3.17172e-09 -7.92336e-10 8.77403e-10 -1.8342e-09 -7.73091 5.47488 -0.417314 -7.92331e-10 8.774e-10 -1.83421e-09 -2.90554 0.965183 -0.102902 -7.92336e-10 8.77399e-10 -1.83421e-09 -10.2786 0.731801 -0.0259123 -7.92327e-10 8.77401e-10 -1.83422e-09 -2.22167 -0.733487 0.20892 -2.03217e-16 0.0 -3.88251e-19 9.90819 -9.18831 15.1123 0.0201311 19.1525 0.46767 -10.2244 -16.3944 -28.3021 2.03217e-16 0.0 3.88251e-19 3.75894 -14.6719 -15.2633 0.167069 28.6186 -0.589786 5.99056 -12.3883 18.3959
26.1305 84.1645 -4.14928 -109.521 -86.1316 108.471 6.68949 14.8292 3.19438 -2.02933 -1.39292 1.07698 7.73554 8.38153 3.39391 -7.65744 -23.5253 4.12551 -0.0 0.0 0.0 -0.0 0.0 0.0 -4.36946e-14 -1.90176e-12 -2.21808e-15 72.4554 40.2168 4.48865 -16.0696 -8.75211 29.8199 -0.461372 -18.9441 -2.76495 -5.49297e-10 9.49845e-10 2.22533e-09 -9.65786e-10 1.64247e-09 3.8377e-09 -5.49298e-10 9.49849e-10 2.22532e-09 7.73091 5.47488 0.417314 -5.49298e-10 9.49851e-10 2.22532e-09 2.90554 0.965183 0.102902 -5.49291e-10 9.49851e-10 2.22532e-09 10.2786 0.731801 0.0259123 -5.49299e-10 9.49849e-10 2.22533e-09 2.22167 -0.733487 -0.20892 -4.36819e-14 -1.90176e-12 -2.43472e-15 -79.689 19.0219 0.847253 16.4856 -9.14853 -30.6991 0.00132323 1.12702 -0.158411 -7.50076e-10 1.1142e-09 -2.45379e-09 -1.30828e-09 1.92517e-09 -4.24323e-09 -7.50081e-10 1.1142e-09 -2.45377e-09 -7.73091 5.47488 -0.417314 -7.50076e-10 1.1142e-09 -2.45378e-09 -2.90554 0.965183 -0.102902 -7.50079e-10 1.11419e-09 -2.45379e-09 -10.2786 0.731801 -0.0259123 -7.50073e-10 1.1142e-09 -2.45379e-09 -2.22167 -0.733487 0.20892 -2.03217e-16 0.0 -3.88251e-19 9.79942 -9.03702 15.4554 0.0210288 19.1242 0.474278 -10.5353 -16.9669 -28.3835 2.03217e-16 0.0 3.88251e-19 3.49092 -14.5674 -15.5063 0.1668 28.6339 -0.593757 6.09176 -12.4372 18.6549
26.1072 84.1451 -4.03496 -109.658 -85.9475 108.77 6.48254 14.7496 3.21993 -1.98892 -1.38154 1.07848 7.72492 8.33641 3.37642 -7.60315 -23.3187 4.11004 -0.0 0.0 0.0 -0.0 0.0 0.0 -5.20338e-14 -2.23547e-12 -2.68359e-15 72.8029 39.9456 4.21402 -16.0642 -8.74711 29.8085 -0.457727 -18.8721 -2.75363 -4.84884e-10 9.35226e-10 2.36344e-09 -8.56324e-10 1.61609e-09 4.07754e-09 -4.84884e-10 9.3523e-10 2.36343e-09 7.73091 5.47488 0.417314 -4.84885e-10 9.35233e-10 2.36344e-09 2.90554 0.965183 0.102902 -4.84877e-10 9.35233e-10 2.36344e-09 10.2786 0.731801 0.0259123 -4.84885e-10 9.3523e-10 2.36344e-09 2.22167 -0.733487 -0.20892 -5.20334e-14 -2.23547e-12 -2.88238e-15 -79.3886 18.8401 0.676675 16.2076 -8.8816 -30.1122 0.00263902 1.46668 -0.206174 -6.51448e-10 1.17987e-09 -2.48684e-09 -1.138e-09 2.03839e-09 -4.30043e-09 -6.51452e-10 1.17987e-09 -2.48682e-09 -7.73091 5.47488 -0.417314 -6.51448e-10 1.17986e-09 -2.48683e-09 -2.90554 0.965183 -0.102902 -6.5145e-10 1.17986e-09 -2.48684e-09 -10.2786 0.731801 -0.0259123 -6.51445e-10 1.17987e-09 -2.48685e-09 -2.22167 -0.733487 0.20892 -2.03217e-16 0.0 -3.88251e-19 9.69745 -8.87093 15.7147 0.0216534 19.0643 0.478416 -10.7721 -17.4243 -28.4267 2.03217e-16 0.0 3.88251e-19 3.30866 -14.4402 -15.614 0.166306 28.6143 -0.596302 6.16579 -12.4964 18.82
26.0412 84.1399 -3.88701 -110.704 -85.8536 109.869 6.32762 14.6517 3.24001 -1.95852 -1.30679 1.08061 7.75981 8.36292 3.33282 -7.69776 -23.2596 4.00623 -0.0 0.0 0.0 -0.0 0.0 0.0 -4.06415e-14 -1.71868e-12 -2.12102e-15 73.0779 39.7718 3.99867 -16.0651 -8.74788 29.8102 -0.456848 -18.8544 -2.75086 -2.58018e-10 5.12285e-10 1.72089e-09 -4.60481e-10 8.83124e-10 2.97093e-09 -2.58019e-10 5.12288e-10 1.72088e-09 7.73091 5.47488 0.417314 -2.58019e-10 5.1229e-10 1.72088e-09 2.90554 0.965183 0.102902 -2.58012e-10 5.12291e-10 1.72088e-09 10.2786 0.731801 0.0259123 -2.58021e-10 5.12289e-10 1.72089e-09 2.22167 -0.733487 -0.20892 -4.06801e-14 -1.71868e-12 -2.333e-15 -79.1139 18.5398 0.493803 15.9561 -8.64604 -29.5814 0.00379652 1.74333 -0.245085 -5.10604e-10 9.45263e-10 -1.53881e-09 -8.90502e-10 1.6331e-09 -2.66078e-09 -5.10608e-10 9.45262e-10 -1.53879e-09 -7.73091 5.47488 -0.417314 -5.10603e-10 9.45258e-10 -1.53881e-09 -2.90554 0.965183 -0.102902 -5.10607e-10 9.45261e-10 -1.53881e-09 -10.2786 0.731801 -0.0259123 -5.10601e-10 9.45262e-10 -1.53882e-09 -2.22167 -0.733487 0.20892 -2.03217e-16 0.0 -3.88251e-19 9.59584 -8.6664 15.8481 0.0219165 18.9542 0.479323 -10.9138 -17.7531 -28.4013 2.03217e-16 0.0 3.88251e-19 3.24301 -14.2628 -15.5231 0.165362 28.5338 -0.596683 6.20053 -12.5787 18.8433
25.9296 84.1535 -3.69181 -111.757 -85.8632 110.829 6.1862 14.5498 3.26016 -1.93344 -1.19286 1.08349 7.82338 8.42436 3.27201 -7.8973 -23.2745 3.84287 -0.0 0.0 0.0 -0.0 0.0 0.0 -1.46177e-14 -6.00991e-13 -1.04673e-15 73.3195 39.6587 3.80962 -16.0727 -8.75497 29.8263 -0.457643 -18.8698 -2.75327 8.67608e-11 -1.94598e-10 5.43934e-10 1.42965e-10 -3.4126e-10 9.42716e-10 8.67615e-11 -1.94596e-10 5.43928e-10 7.73091 5.47488 0.417314 8.67604e-11 -1.94595e-10 5.43932e-10 2.90554 0.965183 0.102902 8.67687e-11 -1.94594e-10 5.43933e-10 10.2786 0.731801 0.0259123 8.67559e-11 -1.94595e-10 5.4394e-10 2.22167 -0.733487 -0.20892 -1.47133e-14 -6.00993e-13 -1.28899e-15 -78.8477 18.1522 0.296415 15.7151 -8.42546 -29.0733 0.00490035 1.99342 -0.280269 -3.29018e-10 4.92314e-10 7.77194e-11 -5.69643e-10 8.50734e-10 1.35111e-10 -3.2902e-10 4.92314e-10 7.77303e-11 -7.73091 5.47488 -0.417314 -3.29014e-10 4.92308e-10 7.77084e-11 -2.90554 0.965183 -0.102902 -3.29023e-10 4.92314e-10 7.77171e-11 -10.2786 0.731801 -0.0259123 -3.29014e-10 4.92315e-10 7.77078e-11 -2.22167 -0.733487 0.20892 -2.03217e-16 0.0 -3.88251e-19 9.47765 -8.4343 15.9025 0.0219896 18.8171 0.478612 -11.006 -18.022 -28.3346 2.03217e-16 0.0 3.88251e-19 3.24229 -14.0635 -15.2646 0.164364 28.4306 -0.59566 6.19635 -12.6756 18.7351
